<svg xmlns="http://www.w3.org/2000/svg" width="48" height="48" viewBox="0 0 98 96">
  <path fill="#181717" d="M49 0C22 0 0 22 0 49c0 21.6 14 40 33.5 46.5 2.5.5 3.4-1.1 3.4-2.4v-8.3c-13.6 3-16.5-5.8-16.5-5.8-2.3-6-5.5-7.6-5.5-7.6-4.5-3 .3-3 .3-3 5 .4 7.6 5.2 7.6 5.2 4.4 7.6 11.5 5.4 14.3 4.1.4-3.2 1.7-5.4 3-6.6-10.8-1.2-22.2-5.5-22.2-24.3 0-5.4 1.9-9.8 5.1-13.3-.5-1.2-2.2-6.1.5-12.8 0 0 4.1-1.3 13.5 5a46.6 46.6 0 0 1 24.6 0c9.4-6.3 13.5-5 13.5-5 2.7 6.7 1 11.6.5 12.8 3.2 3.5 5.1 7.9 5.1 13.3 0 18.9-11.5 23.1-22.3 24.3 1.7 1.5 3.3 4.5 3.3 9v13.3c0 1.3.9 2.9 3.5 2.4A49 49 0 0 0 98 49C98 22 76 0 49 0z"/>
</svg>
