<svg xmlns="http://www.w3.org/2000/svg" viewBox="0 0 551.034 551.034" width="48" height="48">
  <linearGradient id="IG-gradient" x1="275.517" x2="275.517" y1="0" y2="551.034" gradientUnits="userSpaceOnUse">
    <stop offset="0" stop-color="#f58529"/>
    <stop offset="0.3" stop-color="#dd2a7b"/>
    <stop offset="0.6" stop-color="#8134af"/>
    <stop offset="1" stop-color="#515bd4"/>
  </linearGradient>
  <path fill="url(#IG-gradient)" d="M386.878,0H164.156C73.528,0,0,73.528,0,164.156v222.721
    c0,90.629,73.528,164.157,164.156,164.157h222.721c90.629,0,164.156-73.528,164.156-164.157V164.156
    C551.034,73.528,477.507,0,386.878,0z"/>
  <path fill="#fff" d="M275.517,134.053c-78.147,0-141.464,63.317-141.464,141.464
    s63.317,141.464,141.464,141.464s141.464-63.317,141.464-141.464S353.664,134.053,275.517,134.053z M275.517,366.29
    c-50.082,0-90.773-40.691-90.773-90.773s40.691-90.773,90.773-90.773s90.773,40.691,90.773,90.773S325.599,366.29,275.517,366.29z"/>
  <circle cx="418.31" cy="134.07" r="34.15" fill="#fff"/>
</svg>
